<?xml version="1.0" encoding="UTF-8"?>
<svg width="35px" height="30px" viewBox="0 0 35 30" version="1.1" xmlns="http://www.w3.org/2000/svg" xmlns:xlink="http://www.w3.org/1999/xlink">
    <!-- Generator: Sketch 57.1 (83088) - https://sketch.com -->
    <title>ดูข้อมูล</title>
    <desc>Created with Sketch.</desc>
    <g id="Main-Flow-(link)" stroke="none" stroke-width="1" fill="none" fill-rule="evenodd">
        <g id="ดูข้อมูล" transform="translate(1.000000, 1.000000)" fill="#333" stroke="#333">
            <g id="Group-2">
                <g id="noun_search-details_2034757" fill-rule="nonzero" stroke-width="0.5">
                    <g id="Group">
                        <path d="M31.6341667,-2.27373675e-13 L11.6875,-2.27373675e-13 C10.8044444,-2.27373675e-13 10.0772222,0.488 10.0772222,1.34933333 L10.0772222,8.848 C4.83083333,9.10133333 1.61027778,14.624 3.99972222,19.184 L0.675277778,22.4266667 C-0.207777778,23.288 -0.207777778,24.656 0.675277778,25.5173333 C1.55833333,26.3786667 2.96083333,26.3786667 3.84388889,25.5173333 L7.16833333,22.2746667 C8.05138889,22.7306667 9.03833333,22.984 10.0772222,23.0346667 L10.0772222,26.3786667 C10.0772222,27.24 10.8044444,27.9493333 11.6875,27.9493333 L31.6341667,27.9493333 C32.5172222,27.9493333 33.2444444,27.24 33.2444444,26.3786667 L33.2444444,1.34933333 C33.2444444,0.488 32.5172222,-2.27373675e-13 31.6341667,-2.27373675e-13 Z M10.4927778,9.81066667 C10.4927778,9.81066667 10.4927778,9.81066667 10.4927778,9.81066667 C16.0508333,9.81066667 18.8558333,16.3973333 14.9080556,20.248 C12.4666667,22.6293333 8.51888889,22.6293333 6.0775,20.248 C2.12972222,16.448 4.93472222,9.81066667 10.4927778,9.81066667 Z M3.11666667,24.808 C2.64916667,25.264 1.87,25.264 1.4025,24.808 C0.935,24.352 0.935,23.592 1.4025,23.136 L4.57111111,20.0453333 C5.09055556,20.704 5.55805556,21.2106667 6.28527778,21.7173333 L3.11666667,24.808 Z M32.2055556,26.3682581 C32.2055556,26.6779355 31.9458333,26.936 31.6341667,26.936 L11.6875,26.936 C11.3758333,26.936 11.1161111,26.6779355 11.1161111,26.3682581 L11.1161111,22.9618065 C12.8302778,22.8069677 14.3886111,22.0843871 15.6352778,20.8456774 C19.9986111,16.5101935 17.2455556,9.02632258 11.1161111,8.51019355 L11.1161111,1.856 C11.1161111,1.54632258 11.3758333,1.34933333 11.6875,1.34933333 L31.6341667,1.34933333 C31.9458333,1.34933333 32.2055556,1.54632258 32.2055556,1.856 L32.2055556,26.3682581 Z" id="Shape"></path>
                    </g>
                </g>
            </g>
        </g>
    </g>
</svg>