<?xml version="1.0"?>
<svg xmlns="http://www.w3.org/2000/svg" viewBox="0 0 512 512" width="512" height="512"><g id="Out_line" data-name="Out line"><path d="M408,288a24.0384,24.0384,0,0,0-16-22.62378V216a87.248,87.248,0,0,0-32-67.87671V104a8.00039,8.00039,0,0,0-8-8h-8a8,8,0,1,1,0-16h8a8.00039,8.00039,0,0,0,8-8V24a8.00039,8.00039,0,0,0-8-8,56.18353,56.18353,0,0,0-8,.58057V16H168v.58057A56.18353,56.18353,0,0,0,160,16a8.00039,8.00039,0,0,0-8,8V72a8.00039,8.00039,0,0,0,8,8h8a8,8,0,1,1,0,16h-8a8.00039,8.00039,0,0,0-8,8v44.12329A87.2488,87.2488,0,0,0,120,216v49.37622a23.99486,23.99486,0,0,0,0,45.24756V416a24.0384,24.0384,0,0,0,16,22.62378V448h-8a8.00039,8.00039,0,0,0-8,8v32a8.00039,8.00039,0,0,0,8,8H384a8.00039,8.00039,0,0,0,8-8V456a8.00039,8.00039,0,0,0-8-8h-8v-9.37622A24.0384,24.0384,0,0,0,392,416V310.62378A24.0384,24.0384,0,0,0,408,288ZM344,64a23.88664,23.88664,0,0,0-16.9668,7.0127l-.0205.0205A24.00919,24.00919,0,0,0,344,112v32H312V72a40.07012,40.07012,0,0,1,32-39.19629ZM312.86133,32A55.82388,55.82388,0,0,0,296,72v56H280V93.13184a32,32,0,1,0-48,0V128H216V72a55.82388,55.82388,0,0,0-16.86133-40ZM256,88a16,16,0,1,1,16-16A16.01833,16.01833,0,0,1,256,88Zm-8,14.9873a32.105,32.105,0,0,0,16,0V128H248ZM168,112a24,24,0,0,0,0-48V32.80371A40.07012,40.07012,0,0,1,200,72v72H168Zm-5.25342,48H208a8.00039,8.00039,0,0,0,8-8v-8h80v8a8.00039,8.00039,0,0,0,8,8h45.25342A71.40835,71.40835,0,0,1,376,216v48H136V216A71.40835,71.40835,0,0,1,162.74658,160ZM376,480H136V464h8a8.00039,8.00039,0,0,0,8-8V440h32v16a8.00039,8.00039,0,0,0,8,8h40a8.00039,8.00039,0,0,0,8-8V440h32v16a8.00039,8.00039,0,0,0,8,8h40a8.00039,8.00039,0,0,0,8-8V440h32v16a8.00039,8.00039,0,0,0,8,8h8ZM200,440h24v8H200Zm88,0h24v8H288Zm80-16H144a8.00917,8.00917,0,0,1-8-8V312H376V416A8.00917,8.00917,0,0,1,368,424Zm16-128H128a8,8,0,0,1,0-16H384a8,8,0,0,1,0,16Z"/></g></svg>
