<?xml version="1.0" encoding="UTF-8"?>
<svg width="29px" height="29px" viewBox="0 0 29 29" version="1.1" xmlns="http://www.w3.org/2000/svg" xmlns:xlink="http://www.w3.org/1999/xlink">
    <!-- Generator: Sketch 57.1 (83088) - https://sketch.com -->
    <title>Group Copy</title>
    <desc>Created with Sketch.</desc>
    <g id="Symbols" stroke="none" stroke-width="1" fill="none" fill-rule="evenodd">
        <g id="Group-Copy" fill="#000">
            <g id="Time-2">
                <path d="M14.6417778,0.257777778 C6.81160732,0.257777778 0.464,6.6053851 0.464,14.4355556 C0.464,22.265726 6.81160732,28.6133333 14.6417778,28.6133333 C22.4719482,28.6133333 28.8195556,22.265726 28.8195556,14.4355556 C28.8195556,6.6053851 22.4719482,0.257777778 14.6417778,0.257777778 Z M14.6417778,26.68 C7.87935784,26.68 2.39733333,21.1979755 2.39733333,14.4355556 C2.39733333,7.67313562 7.87935784,2.19111111 14.6417778,2.19111111 C21.4041977,2.19111111 26.8862222,7.67313562 26.8862222,14.4355556 C26.8862222,21.1979755 21.4041977,26.68 14.6417778,26.68 Z" id="Shape"></path>
                <path d="M21.1973333,12.9846595 L16.064,12.9846595 L16.064,6.60544803 C16.064,6.12501968 15.6809547,5.73555556 15.2084444,5.73555556 C14.7359342,5.73555556 14.3528889,6.12501968 14.3528889,6.60544803 L14.3528889,14.7244444 L21.1973333,14.7244444 C21.6698436,14.7244444 22.0528889,14.3349803 22.0528889,13.854552 C22.0528889,13.3741236 21.6698436,12.9846595 21.1973333,12.9846595 L21.1973333,12.9846595 Z" id="Shape"></path>
            </g>
        </g>
    </g>
</svg>