<?xml version="1.0" encoding="UTF-8"?>
<svg width="51px" height="44px" viewBox="0 0 51 44" version="1.1" xmlns="http://www.w3.org/2000/svg" xmlns:xlink="http://www.w3.org/1999/xlink">
    <!-- Generator: Sketch 57.1 (83088) - https://sketch.com -->
    <title>รายชื่อพนักงาน copy</title>
    <desc>Created with Sketch.</desc>
    <g id="Symbols" stroke="none" stroke-width="1" fill="none" fill-rule="evenodd">
        <g id="รายชื่อพนักงาน-copy" fill="#333">
            <g id="Group-5">
                <g id="Cart">
                    <path d="M18.486619,28.2007576 L40.9082308,28.2007576 C42.2551392,28.2015762 43.4726294,27.3937615 44.0024133,26.1477424 L50.7288968,10.3553182 C51.1735645,9.30948809 51.0662906,8.10883562 50.443369,7.15957701 C49.8204474,6.2103184 48.7652248,5.6394643 47.6347144,5.64015152 L10.6390548,5.64015152 C9.99236834,5.64854368 9.3618007,5.84436979 8.82290426,6.20416667 L6.58074308,1.01522727 C6.31406242,0.400387936 5.71156937,0.00213597645 5.04486267,0 L1.68162089,0 C0.752887317,0 0,0.757554554 0,1.69204546 C0,2.62653636 0.752887317,3.38409091 1.68162089,3.38409091 L3.92378207,3.38409091 L14.1592479,26.914803 C15.426804,30.7310138 14.9592811,34.9152862 12.881216,38.3530303 C12.8785312,40.648827 14.2590937,42.7171656 16.372196,43.5831658 C18.4852982,44.4491659 20.9092112,43.9399928 22.5014598,42.2956376 C24.0937084,40.6512824 24.5365145,38.1999225 23.6211681,36.0969697 L35.7848925,36.0969697 C34.7959305,38.3774589 35.4089541,41.0405983 37.2936413,42.6513804 C39.1783285,44.2621625 41.8893711,44.4399965 43.9659493,43.0890583 C46.0425275,41.73812 46.9939937,39.1776051 46.3076593,36.7872229 C45.6213249,34.3968407 43.4593549,32.7413835 40.9867065,32.7128788 L18.7556783,32.7128788 L18.5314622,32.7128788 C17.2931508,32.7128788 16.289301,31.7028061 16.289301,30.4568182 C16.289301,29.2108303 17.2931508,28.2007576 18.5314622,28.2007576 L18.486619,28.2007576 Z M47.6347144,9.02424243 L40.9082308,24.8166667 L17.3655384,24.8166667 L10.6390548,9.02424243 L47.6347144,9.02424243 Z M20.7287802,38.3530303 C20.7287802,39.5990182 19.7249304,40.6090909 18.486619,40.6090909 C17.2483075,40.6090909 16.2444578,39.5990182 16.2444578,38.3530303 C16.2444578,37.1070425 17.2483075,36.0969697 18.486619,36.0969697 C19.7249304,36.0969697 20.7287802,37.1070425 20.7287802,38.3530303 Z M43.150392,38.3530303 C43.150392,39.5990182 42.1465422,40.6090909 40.9082308,40.6090909 C39.6699194,40.6090909 38.6660696,39.5990182 38.6660696,38.3530303 C38.6660696,37.1070425 39.6699194,36.0969697 40.9082308,36.0969697 C42.1465422,36.0969697 43.150392,37.1070425 43.150392,38.3530303 Z" id="Shape"></path>
                </g>
            </g>
        </g>
    </g>
</svg>