<?xml version="1.0" encoding="UTF-8"?>
<svg width="41px" height="43px" viewBox="0 0 41 43" version="1.1" xmlns="http://www.w3.org/2000/svg" xmlns:xlink="http://www.w3.org/1999/xlink">
    <!-- Generator: Sketch 57.1 (83088) - https://sketch.com -->
    <title>Chart-12</title>
    <desc>Created with Sketch.</desc>
    <g id="Symbols" stroke="none" stroke-width="1" fill="none" fill-rule="evenodd">
        <g id="Chart-12" fill="#000">
            <path d="M37.72,5.4 L21.72,5.4 L21.72,2.4 C21.72,1.57157288 21.0484271,0.9 20.22,0.9 C19.3915729,0.9 18.72,1.57157288 18.72,2.4 L18.72,5.4 L3.72,5.4 C2.06314575,5.4 0.72,6.74314575 0.72,8.4 L0.72,30.4 C0.72,32.0568542 2.06314575,33.4 3.72,33.4 L11.95,33.4 L7.45,40.61 C7.0578467,41.3081304 7.28318308,42.191184 7.96190124,42.6160509 C8.6406194,43.0409177 9.5333784,42.8577742 9.99,42.2 L14.99,34.2 C15.1357825,33.9624281 15.2120029,33.6887274 15.21,33.41 L26.21,33.41 C26.2079971,33.6887274 26.2842175,33.9624281 26.43,34.2 L31.43,42.2 C31.7007838,42.6820624 32.2148045,42.9760739 32.7676041,42.9650877 C33.3204037,42.9541015 33.8223369,42.6398992 34.0737537,42.1474587 C34.3251704,41.6550181 34.2852995,41.0641963 33.97,40.61 L29.47,33.4 L37.7,33.4 C39.3568542,33.4 40.7,32.0568542 40.7,30.4 L40.7,8.4 C40.7000366,6.75092491 39.3690384,5.41099383 37.72,5.4 Z M37.72,30.4 L3.72,30.4 L3.72,8.4 L37.72,8.4 L37.72,30.4 Z" id="Shape"></path>
            <path d="M12.08,24.61 C12.400722,24.8465846 12.8024104,24.9458089 13.1964033,24.8857719 C13.5903963,24.8257349 13.9443001,24.6113727 14.18,24.29 L18.12,18.9 L22.28,24.31 C22.5629245,24.691648 23.0099195,24.9167055 23.485,24.9167055 C23.9600805,24.9167055 24.4070755,24.691648 24.69,24.31 L29.69,17.31 C30.0308653,16.8754784 30.1053922,16.2888 29.8839963,15.7828533 C29.6626004,15.2769066 29.1810976,14.9335398 28.6306256,14.8890562 C28.0801536,14.8445725 27.5497637,15.1061682 27.25,15.57 L23.43,20.92 L19.29,15.53 C19.0057058,15.1493576 18.5549771,14.9295808 18.08,14.94 C17.6096281,14.9454914 17.1690743,15.1713215 16.89,15.55 L11.77,22.55 C11.3019092,23.2081491 11.4389431,24.1187615 12.08,24.61 L12.08,24.61 Z" id="Shape"></path>
        </g>
    </g>
</svg>