<?xml version="1.0" encoding="utf-8"?>
<!-- Generator: Adobe Illustrator 25.0.1, SVG Export Plug-In . SVG Version: 6.00 Build 0)  -->
<svg version="1.1" id="Layer_1" xmlns="http://www.w3.org/2000/svg" xmlns:xlink="http://www.w3.org/1999/xlink" x="0px" y="0px"
	 viewBox="0 0 30 37" style="enable-background:new 0 0 30 37;" xml:space="preserve">
<style type="text/css">
	.st0{fill:none;}
	.st1{fill:#000;}
</style>
<desc>Created with Sketch.</desc>
<g>
	<path class="st0" d="M20,5.9c0-0.3,0.2-0.6,0.4-0.7c-0.3,0-0.6-0.1-0.9-0.2v2.1H20V5.9z"/>
	<rect x="21.3" y="6.7" class="st0" width="0.1" height="0.4"/>
	<path class="st0" d="M25.6,11.5c0-1.5-0.9-2.7-1.9-2.7h-4.5c-1.1,0-1.9,1.2-1.9,2.7v1.2h8.4V11.5z"/>
	<path class="st0" d="M22.8,5.9v1.2h0.5V5c-0.3,0.1-0.6,0.1-0.9,0.2C22.7,5.3,22.8,5.6,22.8,5.9z"/>
	<path class="st0" d="M19.1,20c0,0.1,0,0.2,0.1,0.2h4.5c0,0,0.1-0.1,0.1-0.2v-0.2h-4.6V20z"/>
	<path class="st0" d="M27.8,25.4L27.8,25.4c-0.2-0.2-0.6-0.2-0.9,0l-4.5,3.5c-0.7,0.6-1.6,0.9-2.5,0.9c0,0,0,0,0,0h-5.7
		c-0.9,0-1.7-0.8-1.7-1.7c0-0.9,0.8-1.7,1.7-1.7H18c0.3,0,0.6-0.2,0.7-0.5c0,0,0-0.1,0-0.1c0-0.3-0.3-0.6-0.6-0.6h-7.8
		c-1.1,0-2.2,0.4-3,1l-2.5,2H1.9v4.2H19c0,0,0,0,0,0c0.5,0,1-0.2,1.4-0.5l7.3-5.7c0.1-0.1,0.2-0.2,0.2-0.4
		C28,25.7,28,25.6,27.8,25.4C27.8,25.4,27.8,25.4,27.8,25.4z"/>
	<path class="st0" d="M19.2,18.2h4.5c1.1,0,1.9-1.2,1.9-2.7v-1.2h-8.4v1.2C17.2,17,18.1,18.2,19.2,18.2z"/>
	<path class="st0" d="M5.9,13.1L9.2,14c0.4,0.1,0.8,0.5,0.8,1c0,0.3-0.1,0.6-0.3,0.8C9.5,15.9,9.2,16,8.9,16H6.8
		c-0.3,0-0.5,0-0.8-0.1l-0.3-0.1l-1.5,1.3l1,0.3c0.4,0.1,0.7,0.2,1.1,0.3l0.5,0v1.9h2v-1.9l0.5,0c0.9-0.1,1.7-0.5,2.2-1.2
		c0.3-0.4,0.6-1,0.5-1.9c-0.1-1.1-1.1-2-2.4-2.3l-3.3-0.8c-0.4-0.1-0.8-0.5-0.8-1c0-0.3,0.1-0.6,0.3-0.8c0.2-0.2,0.5-0.3,0.8-0.3
		h2.1c0.3,0,0.5,0,0.8,0.1l0.3,0.1l1.5-1.3l-1-0.4C10,7.8,9.7,7.8,9.3,7.7l-0.5,0V5.7h-2v1.9l-0.5,0C5.4,7.8,4.6,8.2,4.1,8.9
		c-0.3,0.4-0.6,1-0.5,1.9C3.7,11.9,4.6,12.8,5.9,13.1z"/>
	<path class="st1" d="M17.7,19.4V20c0,1,0.6,1.8,1.4,1.8h4.5c0.8,0,1.4-0.8,1.4-1.8v-0.6c1.1-0.7,1.9-2.2,1.9-3.9v-4
		c0-1.9-0.9-3.5-2.2-4.1V3.9c0-0.3-0.1-0.6-0.3-0.7C24.1,3,23.8,3,23.6,3.2c0,0-0.5,0.3-2.2,0.3c-1.5,0-2.1-0.2-2.2-0.3
		c-0.1-0.1-0.1-0.1-0.2-0.1l0,0c-0.2-0.1-0.4,0-0.5,0.1c-0.2,0.1-0.4,0.4-0.4,0.7v3.5c-1.3,0.6-2.2,2.2-2.2,4.1v4
		C15.9,17.2,16.6,18.7,17.7,19.4z M23.7,20c0,0.1-0.1,0.2-0.1,0.2h-4.5c0,0-0.1-0.1-0.1-0.2v-0.2h4.6V20z M23.3,5v2.1h-0.5V5.9
		c0-0.3-0.2-0.6-0.4-0.7C22.8,5.1,23,5.1,23.3,5z M21.3,6.7h0.1v0.4h-0.1V6.7z M19.5,5c0.3,0.1,0.6,0.1,0.9,0.2
		C20.1,5.3,20,5.6,20,5.9v1.2h-0.5V5z M17.2,11.5c0-1.5,0.9-2.7,1.9-2.7h4.5c1.1,0,1.9,1.2,1.9,2.7v1.2h-8.4V11.5z M17.2,14.3h8.4
		v1.2c0,1.5-0.9,2.7-1.9,2.7h-4.5c-1.1,0-1.9-1.2-1.9-2.7V14.3z"/>
	<path class="st1" d="M29.4,24.2c-0.1-0.1-0.2-0.2-0.3-0.3c-0.9-0.8-2.4-0.8-3.4,0l-4.5,3.5c-0.4,0.3-0.8,0.4-1.3,0.4h-0.2
		c0.5-0.4,0.8-0.9,0.9-1.5c0-0.2,0-0.3,0-0.4c0-1.4-1.2-2.6-2.6-2.6h-7.8c-1.6,0-3.1,0.5-4.3,1.5l-2,1.6H1.7c-1,0-1.8,0.8-1.8,1.8
		v4.5c0,1,0.8,1.8,1.8,1.8H19c0.9,0,1.9-0.3,2.6-0.9l7.3-5.7c0.5-0.4,0.9-1,1-1.7C30,25.4,29.8,24.7,29.4,24.2z M27.8,26.2L20.4,32
		c-0.4,0.3-0.9,0.5-1.4,0.5c0,0,0,0,0,0H1.9v-4.2h2.9l2.5-2c0.8-0.7,1.9-1,3-1H18c0.3,0,0.6,0.3,0.6,0.6c0,0,0,0.1,0,0.1
		c0,0.3-0.4,0.5-0.7,0.5h-3.8c-0.9,0-1.7,0.8-1.7,1.7c0,0.9,0.8,1.7,1.7,1.7h5.7c0,0,0,0,0,0c0.9,0,1.8-0.3,2.5-0.9l4.5-3.5
		c0.3-0.2,0.6-0.2,0.9,0l0,0c0,0,0.1,0,0.1,0.1c0.1,0.1,0.1,0.3,0.1,0.4C28,26,27.9,26.1,27.8,26.2z"/>
	<path class="st1" d="M4.3,14.5l-1.1,1C3,15.6,2.9,15.8,2.8,16c-0.3,0.5-0.4,1-0.2,1.5c0.1,0.5,0.5,1,1,1.3c0.4,0.3,0.9,0.5,1.4,0.6
		c0,1.2,1.1,2.2,2.4,2.2h1.1c1.3,0,2.4-1,2.4-2.2c0.9-0.3,1.7-0.9,2.3-1.6c0.7-1,1.1-2.1,0.9-3.3c-0.2-1.5-1.2-2.7-2.6-3.4l1.1-1
		c0.2-0.1,0.3-0.3,0.4-0.4C13.1,9,13.2,8.5,13,8c-0.1-0.5-0.5-1-0.9-1.3c-0.4-0.3-0.9-0.5-1.4-0.6c0-1.2-1.1-2.2-2.4-2.2h-1
		c-1.3,0-2.4,1-2.4,2.2C4,6.4,3.2,7,2.6,7.7c-0.7,1-1.1,2.1-0.9,3.3C1.9,12.5,2.8,13.8,4.3,14.5z M4.1,8.9c0.5-0.7,1.3-1.1,2.2-1.2
		l0.5,0V5.7h2v1.9l0.5,0c0.4,0,0.8,0.1,1.1,0.3l1,0.4L9.9,9.7L9.6,9.5C9.3,9.5,9.1,9.4,8.8,9.4H6.6c-0.3,0-0.6,0.1-0.8,0.3
		c-0.2,0.2-0.3,0.5-0.3,0.8c0,0.4,0.3,0.9,0.8,1l3.3,0.8c1.3,0.3,2.2,1.3,2.4,2.3c0.1,0.9-0.2,1.5-0.5,1.9c-0.5,0.7-1.3,1.1-2.2,1.2
		l-0.5,0v1.9h-2v-1.9l-0.5,0c-0.4,0-0.7-0.1-1.1-0.3l-1-0.3l1.5-1.3L6,15.9C6.2,16,6.5,16,6.8,16h2.1c0.3,0,0.6-0.1,0.8-0.3
		C9.9,15.5,10,15.2,10,15c0-0.4-0.3-0.9-0.8-1l-3.3-0.8c-1.3-0.3-2.3-1.3-2.4-2.3C3.4,9.9,3.7,9.3,4.1,8.9z"/>
</g>
</svg>
